<svg version="1.1" id="Layer_1" xmlns="http://www.w3.org/2000/svg" xmlns:xlink="http://www.w3.org/1999/xlink" x="0px" y="0px"
	 width="100%" viewBox="0 0 1000 400" enable-background="new 0 0 1000 400" xml:space="preserve">
<path fill="transparent" opacity="1.000000" stroke="none" 
	d="
M0.999999,280.000000 
	C1.000000,187.030090 1.000000,94.060181 1.000000,1.045133 
	C334.333344,1.045133 667.666687,1.045133 1001.000000,1.045133 
	C1001.000000,14.748102 1001.000000,28.410168 1000.625977,42.612701 
	C999.836792,44.590103 999.421021,46.026882 999.006531,47.464012 
	C982.793945,103.674294 965.039307,159.357208 940.841187,212.740204 
	C922.662659,252.843292 900.726685,290.647339 868.341370,321.163483 
	C829.031555,358.204529 783.383240,383.099243 729.162476,390.264740 
	C686.546692,395.896637 644.100769,394.390839 601.857666,386.428192 
	C558.127075,378.185150 515.729614,365.202881 473.852386,350.424866 
	C425.142426,333.235657 376.673065,315.352631 327.818298,298.589600 
	C282.460083,283.026276 236.281570,270.589325 188.336838,265.574890 
	C141.432648,260.669342 94.845161,263.027527 48.459492,270.680634 
	C32.559937,273.303864 16.815371,276.866516 0.999999,280.000000 
z"/>
<path fill="#0F172A" opacity="1.000000" stroke="none" 
	d="
M0.999999,280.468658 
	C16.815371,276.866516 32.559937,273.303864 48.459492,270.680634 
	C94.845161,263.027527 141.432648,260.669342 188.336838,265.574890 
	C236.281570,270.589325 282.460083,283.026276 327.818298,298.589600 
	C376.673065,315.352631 425.142426,333.235657 473.852386,350.424866 
	C515.729614,365.202881 558.127075,378.185150 601.857666,386.428192 
	C644.100769,394.390839 686.546692,395.896637 729.162476,390.264740 
	C783.383240,383.099243 829.031555,358.204529 868.341370,321.163483 
	C900.726685,290.647339 922.662659,252.843292 940.841187,212.740204 
	C965.039307,159.357208 982.793945,103.674294 999.006531,47.464012 
	C999.421021,46.026882 999.836792,44.590103 1000.625977,43.076584 
	C1001.000000,162.298035 1001.000000,281.596069 1001.000000,400.947052 
	C667.666687,400.947052 334.333344,400.947052 1.000000,400.947052 
	C1.000000,360.913635 1.000000,320.925476 0.999999,280.468658 
z"/>
</svg>