<?xml version="1.0" encoding="UTF-8" standalone="no"?>
<!-- Created with Inkscape (http://www.inkscape.org/) -->

   <!-- width="1066.64"
   height="667" -->
<svg
   version="1.1"
   id="svg2"
   viewBox="0 0 1066 336.66669"
   preserveAspectRatio="none"
   sodipodi:docname="iStock-1369102632.eps"
   xmlns:inkscape="http://www.inkscape.org/namespaces/inkscape"
   xmlns:sodipodi="http://sodipodi.sourceforge.net/DTD/sodipodi-0.dtd"
   xmlns="http://www.w3.org/2000/svg"
   xmlns:svg="http://www.w3.org/2000/svg"
   >
  <defs
     id="defs6" />
  <sodipodi:namedview
     id="namedview4"
     pagecolor="#ffffff"
     bordercolor="#000000"
     borderopacity="0.25"
     inkscape:showpageshadow="2"
     inkscape:pageopacity="0.0"
     inkscape:pagecheckerboard="0"
     inkscape:deskcolor="#d1d1d1" />
  <g
     id="g8"
     inkscape:groupmode="layer"
     inkscape:label="ink_ext_XXXXXX"
     transform="matrix(1.3333333,0,0,-1.3333333,0,666.66667)">
    <g
       id="g10"
       transform="scale(0.1)">
      <!-- <path
         d="M 7999.81,0 H 0 V 5000 H 7999.81 V 0"
         style="fill:bluet;fill-opacity:1;fill-rule:nonzero;stroke:none"
         id="path12" /> -->
      <path
         d="m 338.949,3071.69 c -227.754,-145.09 -97.429,-421.71 116.574,-391.4 339.957,48.14 643.197,345.3 582.127,481.64 -61.068,136.34 -445.81,70.86 -698.701,-90.24"
         style="fill:#0f172a;fill-opacity:1;fill-rule:nonzero;stroke:none"
         id="path14" />
      <!-- <path
         d="m 4869.6,2619.82 c -158.55,11.64 -237.59,-106.76 -252.21,-156.06 -20.23,-68.18 8.9,-143.3 70.18,-180.15 104.75,-62.99 328.71,-40.02 382.4,84.31 58.34,135.08 -78.75,242.97 -200.37,251.9"
         style="fill:#fddebb;fill-opacity:1;fill-rule:nonzero;stroke:none"
         id="path16" /> -->
      <!-- <path
         d="m 7660.19,1927.21 c -389.73,125.33 -435.21,-221.73 -221.08,-360.56 222.64,-144.35 415.37,-182.22 560.7,-242.23 v 457.33 c -137.73,70.18 -272.29,123.81 -339.62,145.46"
         style="fill:#fddebb;fill-opacity:1;fill-rule:nonzero;stroke:none"
         id="path18" /> -->
      <path
         d="M 0,5000 V 3483.06 c 632.609,265.97 1360.05,720.66 2122.1,855.62 359.75,63.71 473.24,-28.37 483.26,-142.01 18.02,-204.15 -211.76,-289.49 -504.27,-368.37 -110.76,-29.86 -316.52,-65.89 -463.23,-158.06 -175.99,-110.57 -258.77,-254 -198.87,-371.31 59.9,-117.31 215.58,-138.58 421.69,-59.16 185.21,71.37 384.08,198.92 548.63,277.32 1835.3,874.45 3439.14,695.44 4940.5,134.08 327.36,-122.4 340.48,-515.4 -63.43,-458.59 -164,23.06 -503.84,184.67 -710.02,257.24 -669.07,235.49 -901.98,-366.25 -219.6,-522.3 343.49,-78.54 995.36,-94.12 1643.05,-343.85 V 5000 H 0"
         style="fill:#0f172a;fill-opacity:1;fill-rule:nonzero;stroke:none"
         id="path20" />
      <!-- <path
         d="m 7999.81,930.91 c -901.52,547.15 -1910.48,628.43 -2590,628.43 -701.49,0 -1115.36,-122.83 -1718.39,-253.58 -565.79,-122.68 -950.56,319.84 -263.83,582.22 482.78,184.46 981.92,136.07 911.18,465.89 C 4228.37,2868.65 2482.6,1950.98 2480.92,1950.2 1835.24,1649.83 1212.3,1273.93 916.477,1127.98 c -395.325,-195.05 -589.293,7.61 -311.114,244.44 219.559,186.92 452.597,202.02 675.467,391.66 219.93,187.15 77.44,343.67 -191.45,272.37 C 583.105,1902.19 260.406,1754.6 0,1540.54 V 0 h 7999.81 v 930.91"
         style="fill:#fddebb;fill-opacity:1;fill-rule:nonzero;stroke:none"
         id="path22" /> -->
    </g>
  </g>
</svg>
