<svg version="1.1" preserveAspectRatio="none" id="Layer_1" xmlns="http://www.w3.org/2000/svg" xmlns:xlink="http://www.w3.org/1999/xlink" x="0px" y="0px"
	 width="100%" viewBox="0 0 1000 400" enable-background="new 0 0 1000 400" xml:space="preserve">
<path fill="transparent" opacity="1.000000" stroke="none" 
	d="
M1.322642,359.236084 
	C1.000000,241.036469 1.014627,123.072937 0.921778,5.109487 
	C0.919271,1.924130 1.239723,0.892389 4.888139,0.893654 
	C335.619171,1.008251 666.350220,1.007869 997.081238,0.896828 
	C1000.667053,0.895624 1001.125244,1.823536 1001.089478,5.079820 
	C1000.899292,22.405682 1001.000000,39.734734 1001.000000,57.531342 
	C994.438354,65.537552 987.646301,72.850319 980.546936,79.895210 
	C961.619995,98.676804 943.050903,117.824974 923.898010,136.371460 
	C900.455139,159.072098 876.752380,181.501907 852.367493,203.214523 
	C823.115906,229.260544 793.345154,254.665955 761.974915,278.121307 
	C733.380676,299.501068 703.616943,319.114685 671.633362,335.150940 
	C635.319519,353.358307 597.261475,366.278320 556.926147,371.809509 
	C532.938843,375.098907 508.801208,375.226196 484.658936,373.495758 
	C433.446198,369.824982 383.572510,358.361908 333.594910,347.510529 
	C300.533539,340.332062 267.383911,333.611176 233.898331,328.698883 
	C206.307037,324.651276 178.518280,323.039734 150.702698,324.525299 
	C118.825325,326.227844 87.597961,332.260864 56.948452,341.245331 
	C40.621063,346.031494 24.665468,351.862335 8.772247,357.893707 
	C6.500613,358.755798 4.334168,360.380829 1.322642,359.236084 
z"/>
<path fill="#0F172A" opacity="1.000000" stroke="none" 
	d="
M1.000000,359.468658 
	C10.358444,356.781219 18.990839,352.523285 27.986738,349.291748 
	C79.735809,330.702240 132.865845,320.721893 188.013718,323.104492 
	C216.009399,324.314026 243.635880,328.570526 271.182556,333.506134 
	C316.695709,341.660828 361.546600,353.005402 406.990936,361.491150 
	C446.500427,368.868652 486.155243,374.717621 526.512817,373.135162 
	C575.465332,371.215637 621.494751,357.943207 665.386108,336.697906 
	C706.472351,316.810455 743.838074,291.122833 779.556580,262.925110 
	C835.332397,218.893250 887.431763,170.756821 937.764099,120.672531 
	C958.783264,99.756981 979.531860,78.569458 1000.701782,57.752808 
	C1001.000000,170.964310 1000.984619,283.928619 1001.078613,396.892853 
	C1001.081299,400.083069 1000.753235,401.107361 997.109558,401.106079 
	C666.380798,400.991760 335.651917,400.992188 4.923109,401.102692 
	C1.346358,401.103882 0.848020,400.193878 0.908495,396.923920 
	C1.136439,384.598694 1.000000,372.266754 1.000000,359.468658 
z"/>
</svg>