<svg version="1.1"    preserveAspectRatio="none" id="Layer_1" xmlns="http://www.w3.org/2000/svg" xmlns:xlink="http://www.w3.org/1999/xlink" x="0px" y="0px"
	 width="100%" viewBox="0 0 1000 200" enable-background="new 0 0 1000 200" xml:space="preserve">
<path fill="#0F172A" opacity="1.000000" stroke="none" 
	d="
M1000.772766,131.650635 
	C1001.000000,153.991547 1000.957092,175.983276 1001.060486,197.974335 
	C1001.071960,200.409561 1000.596069,201.510498 998.024109,201.018402 
	C997.381287,200.895401 996.694824,201.000000 996.028442,201.000000 
	C665.988708,201.000000 335.948944,200.987717 5.909239,201.129227 
	C1.439955,201.131149 0.858124,199.912018 0.899199,195.911987 
	C1.114737,174.922302 1.000000,153.929214 1.000000,132.468658 
	C2.369289,128.697571 5.251324,126.976089 8.110144,125.256180 
	C36.327049,108.280441 66.593422,97.150330 99.415855,93.382439 
	C117.142311,91.347511 134.868240,90.896179 152.737076,91.877907 
	C204.586823,94.726570 254.236069,108.151413 303.778748,122.273178 
	C328.932831,129.443161 354.091675,136.512924 380.005493,140.629852 
	C420.034576,146.989273 458.606598,142.155624 496.151245,127.135483 
	C521.218323,117.107117 545.481262,105.205467 570.669434,95.489830 
	C620.461487,76.283928 671.541748,62.088665 724.780701,56.511585 
	C785.414612,50.159847 844.870300,55.687878 902.808777,74.999016 
	C936.931946,86.372429 968.331848,102.940437 996.119446,126.011162 
	C997.923828,127.509224 999.721252,128.992691 1000.772766,131.650635 
z"/>
<path fill="transparent" opacity="1.000000" stroke="none" 
	d="
M1001.000000,131.531342 
	C985.907410,119.686592 970.214966,108.270584 953.096619,98.852730 
	C920.435608,80.883896 885.424561,69.833183 848.965698,62.910866 
	C801.540894,53.906464 754.016357,53.820900 706.313416,60.688065 
	C644.946777,69.522202 586.870117,88.897644 530.609314,114.390282 
	C506.239319,125.432671 481.583923,135.702255 455.207550,141.257278 
	C430.573639,146.445328 405.921722,145.989746 381.196136,142.516235 
	C344.517944,137.363632 309.559692,125.289520 273.994171,115.675529 
	C238.489929,106.078094 202.732788,97.803879 166.011703,94.478271 
	C114.954124,89.854301 65.648514,95.305740 19.915384,120.523308 
	C13.660495,123.972290 7.697491,127.950623 1.299675,131.841934 
	C1.000000,89.514732 1.032590,47.029381 0.927212,4.544373 
	C0.920131,1.689551 1.344588,0.908975 4.453408,0.909878 
	C335.505249,1.005962 666.557129,1.007163 997.608948,0.897536 
	C1000.895691,0.896448 1001.062073,1.924530 1001.056946,4.606718 
	C1000.975769,46.758587 1001.000000,88.910660 1001.000000,131.531342 
z"/>
</svg>